<svg width="58" height="42" viewBox="0 0 58 42" fill="none" xmlns="http://www.w3.org/2000/svg">
<path d="M14.7917 41.6667C10.8737 41.6667 7.52651 40.3104 4.75029 37.5979C1.97235 34.8854 0.583374 31.5702 0.583374 27.6521C0.583374 24.2938 1.59518 21.3014 3.61879 18.675C5.6424 16.0486 8.29032 14.3695 11.5625 13.6375C12.5528 10.15 14.3939 7.22224 17.0857 4.85418C19.7758 2.48613 22.8862 1.04377 26.4167 0.5271V21.3875L24.0917 19.1271C23.6181 18.6535 23.0265 18.4167 22.317 18.4167C21.6057 18.4167 20.9917 18.675 20.475 19.1917C20.0014 19.6653 19.7646 20.2681 19.7646 21C19.7646 21.732 20.0014 22.3347 20.475 22.8084L27.1917 29.525C27.7084 30.0417 28.3112 30.3 29 30.3C29.6889 30.3 30.2917 30.0417 30.8084 29.525L37.525 22.8084C37.9986 22.3347 38.2467 21.7423 38.269 21.031C38.2897 20.3215 38.0417 19.7084 37.525 19.1917C37.0514 18.7181 36.4598 18.4701 35.7503 18.4477C35.039 18.427 34.425 18.6535 33.9084 19.1271L31.5834 21.3875V0.5271C36.0181 1.12988 39.7105 3.12077 42.6607 6.49977C45.6091 9.88049 47.0834 13.8528 47.0834 18.4167C50.0542 18.7611 52.5196 20.0416 54.4795 22.2581C56.4376 24.4763 57.4167 27.0709 57.4167 30.0417C57.4167 33.2709 56.2869 36.0161 54.0274 38.2774C51.7661 40.5369 49.0209 41.6667 45.7917 41.6667H14.7917Z" fill="#FFF7F7"/>
</svg>
