<svg width="221" height="122" viewBox="0 0 221 122" fill="none" xmlns="http://www.w3.org/2000/svg">
<circle r="15" transform="matrix(-1 0 0 1 206 28.3514)" fill="url(#paint0_linear_24_66)"/>
<path d="M178.5 23.3514L156.426 30.1387L161.585 7.62834L178.5 23.3514ZM-328.37 100.569L-334.285 121.927L-351.715 106.776L-331.388 97.9449L-328.37 100.569ZM173.351 24.2233C172.274 23.9808 171.597 22.9106 171.839 21.833C172.082 20.7554 173.152 20.0784 174.229 20.3208L173.351 24.2233ZM164.519 18.2147C165.6 18.4408 166.293 19.5005 166.067 20.5817C165.841 21.6629 164.781 22.3561 163.7 22.13L164.519 18.2147ZM154.019 20.1768C152.934 19.9657 152.227 18.9157 152.438 17.8315C152.649 16.7473 153.699 16.0394 154.783 16.2505L154.019 20.1768ZM145.121 14.4346C146.208 14.6317 146.929 15.6726 146.732 16.7595C146.535 17.8463 145.494 18.5675 144.407 18.3703L145.121 14.4346ZM134.708 16.6723C133.619 16.4883 132.885 15.4563 133.069 14.3671C133.253 13.278 134.285 12.5442 135.374 12.7281L134.708 16.6723ZM125.546 11.1278C126.637 11.299 127.383 12.3224 127.212 13.4136C127.041 14.5048 126.017 15.2507 124.926 15.0795L125.546 11.1278ZM115.253 13.6177C114.16 13.4587 113.403 12.4437 113.562 11.3507C113.721 10.2576 114.736 9.50036 115.829 9.65934L115.253 13.6177ZM106.029 8.28898C107.124 8.43599 107.892 9.44263 107.745 10.5374C107.598 11.6321 106.592 12.4004 105.497 12.2534L106.029 8.28898ZM95.6914 10.9905C94.5951 10.8552 93.8161 9.85694 93.9513 8.76068C94.0865 7.66441 95.0848 6.88533 96.1811 7.02055L95.6914 10.9905ZM86.4075 5.86736C87.5051 5.99102 88.2947 6.98107 88.171 8.0787C88.0474 9.17632 87.0573 9.96588 85.9597 9.84221L86.4075 5.86736ZM76.1366 8.78789C75.0377 8.67579 74.2378 7.69411 74.3499 6.59524C74.462 5.49638 75.4437 4.69644 76.5425 4.80854L76.1366 8.78789ZM66.7191 3.85819C67.8191 3.95882 68.6292 4.9321 68.5286 6.03208C68.428 7.13205 67.4547 7.94219 66.3547 7.84156L66.7191 3.85819ZM56.5446 6.99579C55.4436 6.90667 54.6234 5.94191 54.7125 4.84095C54.8016 3.73998 55.7664 2.91971 56.8673 3.00883L56.5446 6.99579ZM46.9878 2.26133C48.0896 2.33887 48.92 3.29494 48.8424 4.39679C48.7649 5.49863 47.8088 6.329 46.707 6.25146L46.9878 2.26133ZM36.9048 5.61352C35.8022 5.5476 34.9618 4.60033 35.0277 3.49773C35.0937 2.39513 36.0409 1.55473 37.1435 1.62064L36.9048 5.61352ZM27.2292 1.08113C28.3325 1.13523 29.183 2.07344 29.1289 3.17669C29.0748 4.27993 28.1366 5.13043 27.0333 5.07633L27.2292 1.08113ZM17.2344 4.64858C16.1306 4.60636 15.2701 3.67736 15.3123 2.57359C15.3545 1.46983 16.2835 0.60928 17.3873 0.651499L17.2344 4.64858ZM7.48056 0.326937C8.58472 0.357021 9.45543 1.27651 9.42534 2.38067C9.39526 3.48483 8.47577 4.35554 7.37161 4.32545L7.48056 0.326937ZM-2.45317 4.11233C-3.5576 4.09455 -4.43849 3.18481 -4.4207 2.08038C-4.40291 0.975958 -3.49318 0.0950638 -2.38875 0.112852L-2.45317 4.11233ZM-12.289 0.00956821C-11.1844 0.0147835 -10.2932 0.914432 -10.2984 2.01899C-10.3036 3.12355 -11.2033 4.01474 -12.3078 4.00952L-12.289 0.00956821ZM-22.1459 4.01995C-23.2505 4.02755 -24.152 3.13831 -24.1596 2.03376C-24.1673 0.929222 -23.278 0.0276483 -22.1735 0.0200448L-22.1459 4.01995ZM-32.0668 0.146714C-30.9624 0.125984 -30.0503 1.00445 -30.0296 2.10883C-30.0089 3.2132 -30.8873 4.12528 -31.9917 4.14601L-32.0668 0.146714ZM-41.8321 4.39041C-42.9361 4.42459 -43.8588 3.55729 -43.893 2.45325C-43.9272 1.34921 -43.0599 0.426504 -41.9558 0.392327L-41.8321 4.39041ZM-51.8403 0.759886C-50.7368 0.711912 -49.8033 1.56761 -49.7553 2.67113C-49.7074 3.77466 -50.5631 4.70814 -51.6666 4.75611L-51.8403 0.759886ZM-61.4989 5.2466C-62.6017 5.30876 -63.5461 4.46514 -63.6083 3.36232C-63.6704 2.2595 -62.8268 1.3151 -61.724 1.25294L-61.4989 5.2466ZM-71.5959 1.87458C-70.494 1.79784 -69.5385 2.62889 -69.4618 3.73079C-69.385 4.83269 -70.2161 5.78817 -71.318 5.86491L-71.5959 1.87458ZM-81.132 6.61545C-82.2327 6.70723 -83.1994 5.8893 -83.2912 4.78855C-83.383 3.6878 -82.5651 2.72106 -81.4643 2.62928L-81.132 6.61545ZM-91.3182 3.5205C-90.2189 3.41322 -89.2407 4.21744 -89.1335 5.31679C-89.0262 6.41613 -89.8304 7.3943 -90.9297 7.50159L-91.3182 3.5205ZM-100.714 8.52808C-101.812 8.65138 -102.802 7.8615 -102.925 6.76383C-103.048 5.66617 -102.258 4.67638 -101.161 4.55308L-100.714 8.52808ZM-110.989 5.7318C-109.893 5.59195 -108.892 6.36681 -108.752 7.46249C-108.612 8.55817 -109.387 9.55976 -110.483 9.69961L-110.989 5.7318ZM-120.225 11.0201C-121.318 11.1771 -122.332 10.418 -122.489 9.32463C-122.646 8.23127 -121.887 7.21768 -120.793 7.06072L-120.225 11.0201ZM-130.587 8.54739C-129.496 8.37268 -128.47 9.11522 -128.295 10.2059C-128.121 11.2965 -128.863 12.3223 -129.954 12.497L-130.587 8.54739ZM-139.643 14.1325C-140.731 14.3255 -141.769 13.6004 -141.962 12.5128C-142.155 11.4252 -141.43 10.3871 -140.343 10.194L-139.643 14.1325ZM-150.084 12.0112C-149 11.7991 -147.95 12.5059 -147.738 13.5899C-147.525 14.6739 -148.232 15.7246 -149.316 15.9367L-150.084 12.0112ZM-158.939 17.9107C-160.019 18.1426 -161.083 17.4551 -161.315 16.3751C-161.546 15.2952 -160.859 14.2317 -159.779 13.9998L-158.939 17.9107ZM-169.45 16.1724C-168.375 15.9199 -167.298 16.587 -167.046 17.6624C-166.794 18.7377 -167.461 19.8141 -168.536 20.0665L-169.45 16.1724ZM-178.075 22.4053C-179.145 22.679 -180.235 22.0334 -180.509 20.9633C-180.782 19.8932 -180.137 18.8038 -179.067 18.5301L-178.075 22.4053ZM-188.644 21.0854C-187.58 20.7895 -186.477 21.4123 -186.181 22.4765C-185.885 23.5407 -186.508 24.6433 -187.573 24.9392L-188.644 21.0854ZM-197.007 27.6718C-198.064 27.9906 -199.18 27.3918 -199.499 26.3343C-199.818 25.2768 -199.219 24.161 -198.161 23.8421L-197.007 27.6718ZM-207.617 26.8097C-206.567 26.467 -205.438 27.0403 -205.095 28.0904C-204.753 29.1404 -205.326 30.2695 -206.376 30.6123L-207.617 26.8097ZM-215.677 33.77C-216.719 34.1376 -217.861 33.5911 -218.229 32.5495C-218.596 31.5079 -218.05 30.3655 -217.008 29.998L-215.677 33.77ZM-226.31 33.4094C-225.278 33.0162 -224.122 33.5341 -223.729 34.5663C-223.336 35.5985 -223.854 36.7541 -224.886 37.1473L-226.31 33.4094ZM-234.021 40.7632C-235.042 41.1831 -236.211 40.6954 -236.631 39.6737C-237.051 38.6521 -236.563 37.4835 -235.542 37.0635L-234.021 40.7632ZM-244.65 40.9517C-243.64 40.5042 -242.458 40.9601 -242.011 41.9699C-241.564 42.9798 -242.019 44.1612 -243.029 44.6087L-244.65 40.9517ZM-251.955 48.716C-252.952 49.1921 -254.146 48.7701 -254.622 47.7733C-255.098 46.7766 -254.676 45.5827 -253.679 45.1066L-251.955 48.716ZM-262.558 49.5092C-261.576 49.0037 -260.37 49.3902 -259.864 50.3723C-259.359 51.3544 -259.745 52.5604 -260.728 53.0658L-262.558 49.5092ZM-269.385 57.692C-270.351 58.2278 -271.569 57.8791 -272.105 56.9131C-272.64 55.9472 -272.292 54.7298 -271.326 54.1941L-269.385 57.692ZM-279.925 59.1463C-278.977 58.5795 -277.749 58.8886 -277.182 59.8367C-276.615 60.7848 -276.924 62.0128 -277.872 62.5796L-279.925 59.1463ZM-286.199 67.749C-287.127 68.3475 -288.365 68.0802 -288.963 67.1518C-289.562 66.2234 -289.295 64.9857 -288.366 64.3871L-286.199 67.749ZM-296.621 69.9156C-295.714 69.2848 -294.468 69.5085 -293.837 70.4152C-293.206 71.3219 -293.43 72.5684 -294.337 73.1992L-296.621 69.9156ZM-302.269 78.9341C-303.152 79.5975 -304.406 79.4195 -305.069 78.5364C-305.733 77.6533 -305.555 76.3996 -304.672 75.7361L-302.269 78.9341ZM-312.507 81.8569C-311.649 81.1605 -310.39 81.2909 -309.693 82.1483C-308.997 83.0057 -309.127 84.2653 -309.985 84.9617L-312.507 81.8569ZM-317.458 91.2767C-318.287 92.0061 -319.551 91.9249 -320.28 91.0954C-321.01 90.2659 -320.929 89.0021 -320.099 88.2728L-317.458 91.2767ZM-327.434 94.9869C-326.635 94.2249 -325.369 94.2552 -324.606 95.0548C-323.844 95.8543 -323.875 97.1203 -324.674 97.8824L-327.434 94.9869ZM-331.615 104.775C-332.383 105.57 -333.649 105.591 -334.443 104.824C-335.238 104.056 -335.259 102.79 -334.492 101.996L-331.615 104.775ZM-341.252 109.292C-340.518 108.466 -339.254 108.391 -338.428 109.124C-337.602 109.858 -337.527 111.122 -338.261 111.948L-341.252 109.292ZM163.7 22.13C160.55 21.4715 157.322 20.8197 154.019 20.1768L154.783 16.2505C158.104 16.8968 161.351 17.5523 164.519 18.2147L163.7 22.13ZM144.407 18.3703C141.233 17.7946 137.999 17.228 134.708 16.6723L135.374 12.7281C138.681 13.2865 141.931 13.8559 145.121 14.4346L144.407 18.3703ZM124.926 15.0795C121.748 14.581 118.523 14.0933 115.253 13.6177L115.829 9.65934C119.113 10.1371 122.353 10.627 125.546 11.1278L124.926 15.0795ZM105.497 12.2534C102.267 11.8196 98.9973 11.3982 95.6914 10.9905L96.1811 7.02055C99.5012 7.43006 102.785 7.85326 106.029 8.28898L105.497 12.2534ZM85.9597 9.84221C82.7164 9.4768 79.4413 9.12502 76.1366 8.78789L76.5425 4.80854C79.8613 5.1471 83.1503 5.50039 86.4075 5.86736L85.9597 9.84221ZM66.3547 7.84156C63.1098 7.54471 59.8392 7.26248 56.5446 6.99579L56.8673 3.00883C60.1759 3.27665 63.4605 3.56009 66.7191 3.85819L66.3547 7.84156ZM46.707 6.25146C43.4599 6.02296 40.192 5.81003 36.9048 5.61352L37.1435 1.62064C40.4449 1.81801 43.7268 2.03185 46.9878 2.26133L46.707 6.25146ZM27.0333 5.07633C23.7832 4.91696 20.5164 4.77411 17.2344 4.64858L17.3873 0.651499C20.6838 0.77759 23.965 0.921069 27.2292 1.08113L27.0333 5.07633ZM7.37161 4.32545C4.10934 4.23657 0.833923 4.16527 -2.45317 4.11233L-2.38875 0.112852C0.913361 0.166035 4.20364 0.237654 7.48056 0.326937L7.37161 4.32545ZM-12.3078 4.00952C-15.5778 3.99408 -18.8576 3.99731 -22.1459 4.01995L-22.1735 0.0200448C-18.8695 -0.00269938 -15.5742 -0.0059433 -12.289 0.00956821L-12.3078 4.00952ZM-31.9917 4.14601C-35.2655 4.20746 -38.5461 4.28869 -41.8321 4.39041L-41.9558 0.392327C-38.6534 0.290095 -35.3565 0.208465 -32.0668 0.146714L-31.9917 4.14601ZM-51.6666 4.75611C-54.9405 4.89844 -58.2184 5.06171 -61.4989 5.2466L-61.724 1.25294C-58.4262 1.06706 -55.1311 0.90295 -51.8403 0.759886L-51.6666 4.75611ZM-71.318 5.86491C-74.5886 6.09271 -77.8604 6.34266 -81.132 6.61545L-81.4643 2.62928C-78.1743 2.35495 -74.8844 2.10362 -71.5959 1.87458L-71.318 5.86491ZM-90.9297 7.50159C-94.1933 7.82008 -97.4552 8.16202 -100.714 8.52808L-101.161 4.55308C-97.882 4.18481 -94.6008 3.84085 -91.3182 3.5205L-90.9297 7.50159ZM-110.483 9.69961C-113.735 10.1147 -116.983 10.5547 -120.225 11.0201L-120.793 7.06072C-117.53 6.59225 -114.262 6.14951 -110.989 5.7318L-110.483 9.69961ZM-129.954 12.497C-133.191 13.0156 -136.422 13.5605 -139.643 14.1325L-140.343 10.194C-137.098 9.6181 -133.846 9.06946 -130.587 8.54739L-129.954 12.497ZM-149.316 15.9367C-152.534 16.5665 -155.742 17.2243 -158.939 17.9107L-159.779 13.9998C-156.558 13.3082 -153.326 12.6456 -150.084 12.0112L-149.316 15.9367ZM-168.536 20.0665C-171.729 20.8161 -174.91 21.5955 -178.075 22.4053L-179.067 18.5301C-175.875 17.7136 -172.669 16.9279 -169.45 16.1724L-168.536 20.0665ZM-187.573 24.9392C-190.734 25.8181 -193.879 26.7287 -197.007 27.6718L-198.161 23.8421C-195.005 22.8905 -191.833 21.9719 -188.644 21.0854L-187.573 24.9392ZM-206.376 30.6123C-209.496 31.6308 -212.597 32.6832 -215.677 33.77L-217.008 29.998C-213.898 28.9004 -210.767 27.8379 -207.617 26.8097L-206.376 30.6123ZM-224.886 37.1473C-227.954 38.3164 -231 39.5214 -234.021 40.7632L-235.542 37.0635C-232.488 35.8083 -229.41 34.5906 -226.31 33.4094L-224.886 37.1473ZM-243.029 44.6087C-246.032 45.9392 -249.008 47.3081 -251.955 48.716L-253.679 45.1066C-250.697 43.682 -247.686 42.2973 -244.65 40.9517L-243.029 44.6087ZM-260.728 53.0658C-263.644 54.567 -266.531 56.1088 -269.385 57.692L-271.326 54.1941C-268.434 52.5903 -265.511 51.0289 -262.558 49.5092L-260.728 53.0658ZM-277.872 62.5796C-280.683 64.2595 -283.459 65.9824 -286.199 67.749L-288.366 64.3871C-285.587 62.5956 -282.773 60.849 -279.925 59.1463L-277.872 62.5796ZM-294.337 73.1992C-297.019 75.0654 -299.664 76.9767 -302.269 78.9341L-304.672 75.7361C-302.027 73.749 -299.343 71.8092 -296.621 69.9156L-294.337 73.1992ZM-309.985 84.9617C-312.518 87.0192 -315.009 89.124 -317.458 91.2767L-320.099 88.2728C-317.611 86.0851 -315.08 83.9468 -312.507 81.8569L-309.985 84.9617ZM-324.674 97.8824C-327.033 100.131 -329.348 102.428 -331.615 104.775L-334.492 101.996C-332.186 99.6088 -329.832 97.2728 -327.434 94.9869L-324.674 97.8824Z" fill="url(#paint1_linear_24_66)"/>
<defs>
<linearGradient id="paint0_linear_24_66" x1="0" y1="0" x2="19.4875" y2="35.7331" gradientUnits="userSpaceOnUse">
<stop stop-color="#FEE148"/>
<stop offset="1" stop-color="#9F34A3"/>
</linearGradient>
<linearGradient id="paint1_linear_24_66" x1="178.5" y1="2" x2="158.378" y2="173.26" gradientUnits="userSpaceOnUse">
<stop stop-color="#FEE148"/>
<stop offset="1" stop-color="#9F34A3"/>
</linearGradient>
</defs>
</svg>
