<svg width="573" height="122" viewBox="0 0 573 122" fill="none" xmlns="http://www.w3.org/2000/svg">
<circle cx="15" cy="28.3514" r="15" fill="url(#paint0_linear_23_44)"/>
<path d="M42.5 23.3514L64.5741 30.1387L59.415 7.62834L42.5 23.3514ZM549.37 100.569L555.285 121.927L572.715 106.776L552.388 97.9449L549.37 100.569ZM47.6486 24.2233C48.7262 23.9808 49.4033 22.9106 49.1608 21.833C48.9184 20.7554 47.8482 20.0784 46.7706 20.3208L47.6486 24.2233ZM56.4811 18.2147C55.3999 18.4408 54.7067 19.5005 54.9328 20.5817C55.1588 21.6629 56.2186 22.3561 57.2997 22.13L56.4811 18.2147ZM66.9813 20.1768C68.0655 19.9657 68.7734 18.9157 68.5623 17.8315C68.3513 16.7473 67.3013 16.0394 66.2171 16.2505L66.9813 20.1768ZM75.8787 14.4346C74.7919 14.6317 74.0706 15.6726 74.2678 16.7595C74.465 17.8463 75.5058 18.5675 76.5927 18.3703L75.8787 14.4346ZM86.2916 16.6723C87.3808 16.4883 88.1146 15.4563 87.9307 14.3671C87.7468 13.278 86.7147 12.5442 85.6256 12.7281L86.2916 16.6723ZM95.454 11.1278C94.3628 11.299 93.6169 12.3224 93.7881 13.4136C93.9592 14.5048 94.9826 15.2507 96.0738 15.0795L95.454 11.1278ZM105.747 13.6177C106.84 13.4587 107.597 12.4437 107.438 11.3507C107.279 10.2576 106.264 9.50036 105.171 9.65934L105.747 13.6177ZM114.971 8.28898C113.876 8.43599 113.108 9.44263 113.255 10.5374C113.402 11.6321 114.408 12.4004 115.503 12.2534L114.971 8.28898ZM125.309 10.9905C126.405 10.8552 127.184 9.85694 127.049 8.76068C126.914 7.66441 125.915 6.88533 124.819 7.02055L125.309 10.9905ZM134.592 5.86736C133.495 5.99102 132.705 6.98107 132.829 8.0787C132.953 9.17632 133.943 9.96588 135.04 9.84221L134.592 5.86736ZM144.863 8.78789C145.962 8.67579 146.762 7.69411 146.65 6.59524C146.538 5.49638 145.556 4.69644 144.457 4.80854L144.863 8.78789ZM154.281 3.85819C153.181 3.95882 152.371 4.9321 152.471 6.03208C152.572 7.13205 153.545 7.94219 154.645 7.84156L154.281 3.85819ZM164.455 6.99579C165.556 6.90667 166.377 5.94191 166.288 4.84095C166.198 3.73998 165.234 2.91971 164.133 3.00883L164.455 6.99579ZM174.012 2.26133C172.91 2.33887 172.08 3.29494 172.158 4.39679C172.235 5.49863 173.191 6.329 174.293 6.25146L174.012 2.26133ZM184.095 5.61352C185.198 5.5476 186.038 4.60033 185.972 3.49773C185.906 2.39513 184.959 1.55473 183.856 1.62064L184.095 5.61352ZM193.771 1.08113C192.668 1.13523 191.817 2.07344 191.871 3.17669C191.925 4.27993 192.863 5.13043 193.967 5.07633L193.771 1.08113ZM203.766 4.64858C204.869 4.60636 205.73 3.67736 205.688 2.57359C205.645 1.46983 204.716 0.60928 203.613 0.651499L203.766 4.64858ZM213.519 0.326937C212.415 0.357021 211.545 1.27651 211.575 2.38067C211.605 3.48483 212.524 4.35554 213.628 4.32545L213.519 0.326937ZM223.453 4.11233C224.558 4.09455 225.438 3.18481 225.421 2.08038C225.403 0.975958 224.493 0.0950638 223.389 0.112852L223.453 4.11233ZM233.289 0.00956821C232.184 0.0147835 231.293 0.914432 231.298 2.01899C231.304 3.12355 232.203 4.01474 233.308 4.00952L233.289 0.00956821ZM243.146 4.01995C244.25 4.02755 245.152 3.13831 245.16 2.03376C245.167 0.929222 244.278 0.0276483 243.173 0.0200448L243.146 4.01995ZM253.067 0.146714C251.962 0.125984 251.05 1.00445 251.03 2.10883C251.009 3.2132 251.887 4.12528 252.992 4.14601L253.067 0.146714ZM262.832 4.39041C263.936 4.42459 264.859 3.55729 264.893 2.45325C264.927 1.34921 264.06 0.426504 262.956 0.392327L262.832 4.39041ZM272.84 0.759886C271.737 0.711912 270.803 1.56761 270.755 2.67113C270.707 3.77466 271.563 4.70814 272.667 4.75611L272.84 0.759886ZM282.499 5.2466C283.602 5.30876 284.546 4.46514 284.608 3.36232C284.67 2.2595 283.827 1.3151 282.724 1.25294L282.499 5.2466ZM292.596 1.87458C291.494 1.79784 290.539 2.62889 290.462 3.73079C290.385 4.83269 291.216 5.78817 292.318 5.86491L292.596 1.87458ZM302.132 6.61545C303.233 6.70723 304.199 5.8893 304.291 4.78855C304.383 3.6878 303.565 2.72106 302.464 2.62928L302.132 6.61545ZM312.318 3.5205C311.219 3.41322 310.241 4.21744 310.133 5.31679C310.026 6.41613 310.83 7.3943 311.93 7.50159L312.318 3.5205ZM321.714 8.52808C322.812 8.65138 323.802 7.8615 323.925 6.76383C324.048 5.66617 323.258 4.67638 322.161 4.55308L321.714 8.52808ZM331.989 5.7318C330.893 5.59195 329.892 6.36681 329.752 7.46249C329.612 8.55817 330.387 9.55976 331.483 9.69961L331.989 5.7318ZM341.225 11.0201C342.318 11.1771 343.332 10.418 343.489 9.32463C343.646 8.23127 342.887 7.21768 341.793 7.06072L341.225 11.0201ZM351.587 8.54739C350.496 8.37268 349.47 9.11522 349.295 10.2059C349.121 11.2965 349.863 12.3223 350.954 12.497L351.587 8.54739ZM360.643 14.1325C361.731 14.3255 362.769 13.6004 362.962 12.5128C363.155 11.4252 362.43 10.3871 361.343 10.194L360.643 14.1325ZM371.084 12.0112C370 11.7991 368.95 12.5059 368.738 13.5899C368.525 14.6739 369.232 15.7246 370.316 15.9367L371.084 12.0112ZM379.939 17.9107C381.019 18.1426 382.083 17.4551 382.315 16.3751C382.546 15.2952 381.859 14.2317 380.779 13.9998L379.939 17.9107ZM390.45 16.1724C389.375 15.9199 388.298 16.587 388.046 17.6624C387.794 18.7377 388.461 19.8141 389.536 20.0665L390.45 16.1724ZM399.075 22.4053C400.145 22.679 401.235 22.0334 401.509 20.9633C401.782 19.8932 401.137 18.8038 400.067 18.5301L399.075 22.4053ZM409.644 21.0854C408.58 20.7895 407.477 21.4123 407.181 22.4765C406.885 23.5407 407.508 24.6433 408.573 24.9392L409.644 21.0854ZM418.007 27.6718C419.064 27.9906 420.18 27.3918 420.499 26.3343C420.818 25.2768 420.219 24.161 419.161 23.8421L418.007 27.6718ZM428.617 26.8097C427.567 26.467 426.438 27.0403 426.095 28.0904C425.753 29.1404 426.326 30.2695 427.376 30.6123L428.617 26.8097ZM436.677 33.77C437.719 34.1376 438.861 33.5911 439.229 32.5495C439.596 31.5079 439.05 30.3655 438.008 29.998L436.677 33.77ZM447.31 33.4094C446.278 33.0162 445.122 33.5341 444.729 34.5663C444.336 35.5985 444.854 36.7541 445.886 37.1473L447.31 33.4094ZM455.021 40.7632C456.042 41.1831 457.211 40.6954 457.631 39.6737C458.051 38.6521 457.563 37.4835 456.542 37.0635L455.021 40.7632ZM465.65 40.9517C464.64 40.5042 463.458 40.9601 463.011 41.9699C462.564 42.9798 463.019 44.1612 464.029 44.6087L465.65 40.9517ZM472.955 48.716C473.952 49.1921 475.146 48.7701 475.622 47.7733C476.098 46.7766 475.676 45.5827 474.679 45.1066L472.955 48.716ZM483.558 49.5092C482.576 49.0037 481.37 49.3902 480.864 50.3723C480.359 51.3544 480.745 52.5604 481.728 53.0658L483.558 49.5092ZM490.385 57.692C491.351 58.2278 492.569 57.8791 493.105 56.9131C493.64 55.9472 493.292 54.7298 492.326 54.1941L490.385 57.692ZM500.925 59.1463C499.977 58.5795 498.749 58.8886 498.182 59.8367C497.615 60.7848 497.924 62.0128 498.872 62.5796L500.925 59.1463ZM507.199 67.749C508.127 68.3475 509.365 68.0802 509.963 67.1518C510.562 66.2234 510.295 64.9857 509.366 64.3871L507.199 67.749ZM517.621 69.9156C516.714 69.2848 515.468 69.5085 514.837 70.4152C514.206 71.3219 514.43 72.5684 515.337 73.1992L517.621 69.9156ZM523.269 78.9341C524.152 79.5975 525.406 79.4195 526.069 78.5364C526.733 77.6533 526.555 76.3996 525.672 75.7361L523.269 78.9341ZM533.507 81.8569C532.649 81.1605 531.39 81.2909 530.693 82.1483C529.997 83.0057 530.127 84.2653 530.985 84.9617L533.507 81.8569ZM538.458 91.2767C539.287 92.0061 540.551 91.9249 541.28 91.0954C542.01 90.2659 541.929 89.0021 541.099 88.2728L538.458 91.2767ZM548.434 94.9869C547.635 94.2249 546.369 94.2552 545.606 95.0548C544.844 95.8543 544.875 97.1203 545.674 97.8824L548.434 94.9869ZM552.615 104.775C553.383 105.57 554.649 105.591 555.443 104.824C556.238 104.056 556.259 102.79 555.492 101.996L552.615 104.775ZM562.252 109.292C561.518 108.466 560.254 108.391 559.428 109.124C558.602 109.858 558.527 111.122 559.261 111.948L562.252 109.292ZM57.2997 22.13C60.4497 21.4715 63.6782 20.8197 66.9813 20.1768L66.2171 16.2505C62.8961 16.8968 59.6495 17.5523 56.4811 18.2147L57.2997 22.13ZM76.5927 18.3703C79.7666 17.7946 83.0006 17.228 86.2916 16.6723L85.6256 12.7281C82.3187 13.2865 79.0687 13.8559 75.8787 14.4346L76.5927 18.3703ZM96.0738 15.0795C99.2521 14.581 102.477 14.0933 105.747 13.6177L105.171 9.65934C101.887 10.1371 98.6469 10.627 95.454 11.1278L96.0738 15.0795ZM115.503 12.2534C118.733 11.8196 122.003 11.3982 125.309 10.9905L124.819 7.02055C121.499 7.43006 118.215 7.85326 114.971 8.28898L115.503 12.2534ZM135.04 9.84221C138.284 9.4768 141.559 9.12502 144.863 8.78789L144.457 4.80854C141.139 5.1471 137.85 5.50039 134.592 5.86736L135.04 9.84221ZM154.645 7.84156C157.89 7.54471 161.161 7.26248 164.455 6.99579L164.133 3.00883C160.824 3.27665 157.54 3.56009 154.281 3.85819L154.645 7.84156ZM174.293 6.25146C177.54 6.02296 180.808 5.81003 184.095 5.61352L183.856 1.62064C180.555 1.81801 177.273 2.03185 174.012 2.26133L174.293 6.25146ZM193.967 5.07633C197.217 4.91696 200.484 4.77411 203.766 4.64858L203.613 0.651499C200.316 0.77759 197.035 0.921069 193.771 1.08113L193.967 5.07633ZM213.628 4.32545C216.891 4.23657 220.166 4.16527 223.453 4.11233L223.389 0.112852C220.087 0.166035 216.796 0.237654 213.519 0.326937L213.628 4.32545ZM233.308 4.00952C236.578 3.99408 239.858 3.99731 243.146 4.01995L243.173 0.0200448C239.869 -0.00269938 236.574 -0.0059433 233.289 0.00956821L233.308 4.00952ZM252.992 4.14601C256.265 4.20746 259.546 4.28869 262.832 4.39041L262.956 0.392327C259.653 0.290095 256.357 0.208465 253.067 0.146714L252.992 4.14601ZM272.667 4.75611C275.941 4.89844 279.218 5.06171 282.499 5.2466L282.724 1.25294C279.426 1.06706 276.131 0.90295 272.84 0.759886L272.667 4.75611ZM292.318 5.86491C295.589 6.09271 298.86 6.34266 302.132 6.61545L302.464 2.62928C299.174 2.35495 295.884 2.10362 292.596 1.87458L292.318 5.86491ZM311.93 7.50159C315.193 7.82008 318.455 8.16202 321.714 8.52808L322.161 4.55308C318.882 4.18481 315.601 3.84085 312.318 3.5205L311.93 7.50159ZM331.483 9.69961C334.735 10.1147 337.983 10.5547 341.225 11.0201L341.793 7.06072C338.53 6.59225 335.262 6.14951 331.989 5.7318L331.483 9.69961ZM350.954 12.497C354.191 13.0156 357.422 13.5605 360.643 14.1325L361.343 10.194C358.098 9.6181 354.846 9.06946 351.587 8.54739L350.954 12.497ZM370.316 15.9367C373.534 16.5665 376.742 17.2243 379.939 17.9107L380.779 13.9998C377.558 13.3082 374.326 12.6456 371.084 12.0112L370.316 15.9367ZM389.536 20.0665C392.729 20.8161 395.91 21.5955 399.075 22.4053L400.067 18.5301C396.875 17.7136 393.669 16.9279 390.45 16.1724L389.536 20.0665ZM408.573 24.9392C411.734 25.8181 414.879 26.7287 418.007 27.6718L419.161 23.8421C416.005 22.8905 412.833 21.9719 409.644 21.0854L408.573 24.9392ZM427.376 30.6123C430.496 31.6308 433.597 32.6832 436.677 33.77L438.008 29.998C434.898 28.9004 431.767 27.8379 428.617 26.8097L427.376 30.6123ZM445.886 37.1473C448.954 38.3164 452 39.5214 455.021 40.7632L456.542 37.0635C453.488 35.8083 450.41 34.5906 447.31 33.4094L445.886 37.1473ZM464.029 44.6087C467.032 45.9392 470.008 47.3081 472.955 48.716L474.679 45.1066C471.697 43.682 468.686 42.2973 465.65 40.9517L464.029 44.6087ZM481.728 53.0658C484.644 54.567 487.531 56.1088 490.385 57.692L492.326 54.1941C489.434 52.5903 486.511 51.0289 483.558 49.5092L481.728 53.0658ZM498.872 62.5796C501.683 64.2595 504.459 65.9824 507.199 67.749L509.366 64.3871C506.587 62.5956 503.773 60.849 500.925 59.1463L498.872 62.5796ZM515.337 73.1992C518.019 75.0654 520.664 76.9767 523.269 78.9341L525.672 75.7361C523.027 73.749 520.343 71.8092 517.621 69.9156L515.337 73.1992ZM530.985 84.9617C533.518 87.0192 536.009 89.124 538.458 91.2767L541.099 88.2728C538.611 86.0851 536.08 83.9468 533.507 81.8569L530.985 84.9617ZM545.674 97.8824C548.033 100.131 550.348 102.428 552.615 104.775L555.492 101.996C553.186 99.6088 550.832 97.2728 548.434 94.9869L545.674 97.8824Z" fill="url(#paint1_linear_23_44)"/>
<defs>
<linearGradient id="paint0_linear_23_44" x1="0" y1="13.3514" x2="19.4875" y2="49.0846" gradientUnits="userSpaceOnUse">
<stop stop-color="#FEE148"/>
<stop offset="1" stop-color="#9F34A3"/>
</linearGradient>
<linearGradient id="paint1_linear_23_44" x1="42.5" y1="2" x2="62.6217" y2="173.26" gradientUnits="userSpaceOnUse">
<stop stop-color="#FEE148"/>
<stop offset="1" stop-color="#9F34A3"/>
</linearGradient>
</defs>
</svg>
