<svg width="144" height="59" viewBox="0 0 144 59" fill="none" xmlns="http://www.w3.org/2000/svg">
<path d="M76.704 31.496V18.568H69.28V31.496C69.28 37.448 73.6 41.32 80.128 41.32C86.624 41.32 90.816 37.448 90.816 31.496V18.568H83.392V31.496C83.392 33.736 81.984 35.144 80.16 35.144C78.304 35.144 76.704 33.704 76.704 31.496ZM104.894 18.344C97.7578 18.344 92.5738 23.112 92.5738 29.768C92.5738 36.456 97.7578 41.32 104.894 41.32C112.03 41.32 117.214 36.424 117.214 29.768C117.214 23.144 112.03 18.344 104.894 18.344ZM104.99 24.52C107.55 24.52 109.598 26.728 109.598 29.8C109.598 32.872 107.55 35.144 104.99 35.144C102.43 35.144 100.19 32.872 100.19 29.8C100.19 26.728 102.398 24.52 104.99 24.52ZM130.488 18.344C123.352 18.344 118.168 23.112 118.168 29.768C118.168 36.456 123.352 41.32 130.488 41.32C137.624 41.32 142.808 36.424 142.808 29.768C142.808 23.144 137.624 18.344 130.488 18.344ZM130.584 24.52C133.144 24.52 135.192 26.728 135.192 29.8C135.192 32.872 133.144 35.144 130.584 35.144C128.024 35.144 125.784 32.872 125.784 29.8C125.784 26.728 127.992 24.52 130.584 24.52Z" fill="#100311"/>
<circle cx="19.4805" cy="24.1558" r="19.4805" fill="#FEE148"/>
<circle cx="40.5195" cy="19.4805" r="19.4805" fill="#CF2127"/>
<circle cx="30.3896" cy="38.961" r="19.4805" fill="#9F34A3"/>
</svg>
