<svg width="305" height="37" viewBox="0 0 305 37" fill="none" xmlns="http://www.w3.org/2000/svg">
<path d="M0.0609132 25.4052L23.1314 26.4483L12.4995 5.94718L0.0609132 25.4052ZM280.341 19.5289L295.104 36.057L304.02 14.7535L281.885 15.839L280.341 19.5289ZM5.36917 24.9027C6.37295 24.4417 6.81298 23.2543 6.352 22.2505C5.89102 21.2468 4.7036 20.8067 3.69982 21.2677L5.36917 24.9027ZM13.4172 17.5162C12.3686 17.8633 11.7998 18.9947 12.1468 20.0433C12.4938 21.0919 13.6252 21.6607 14.6739 21.3137L13.4172 17.5162ZM24.2379 18.4921C25.3057 18.2093 25.942 17.1144 25.6592 16.0467C25.3764 14.9789 24.2816 14.3426 23.2138 14.6254L24.2379 18.4921ZM33.2274 12.2063C32.1488 12.4446 31.4676 13.5121 31.7059 14.5906C31.9441 15.6692 33.0116 16.3504 34.0902 16.1121L33.2274 12.2063ZM43.9648 14.0975C45.0502 13.8928 45.7642 12.847 45.5596 11.7615C45.3549 10.6761 44.3091 9.96206 43.2236 10.1667L43.9648 14.0975ZM53.2695 8.4072C52.1793 8.58446 51.4391 9.61198 51.6164 10.7022C51.7937 11.7925 52.8212 12.5326 53.9114 12.3554L53.2695 8.4072ZM63.9173 10.8412C65.0111 10.6874 65.7732 9.67604 65.6194 8.58223C65.4656 7.48842 64.4542 6.72639 63.3604 6.88019L63.9173 10.8412ZM73.4789 5.55708C72.3824 5.69007 71.6013 6.68679 71.7343 7.78333C71.8673 8.87986 72.864 9.66097 73.9605 9.52799L73.4789 5.55708ZM84.0296 8.3963C85.1282 8.2823 85.9265 7.29924 85.8125 6.20057C85.6985 5.1019 84.7154 4.30366 83.6167 4.41766L84.0296 8.3963ZM93.7695 3.44771C92.6692 3.54398 91.8552 4.51404 91.9514 5.61441C92.0477 6.71477 93.0178 7.52876 94.1181 7.4325L93.7695 3.44771ZM104.222 6.62712C105.324 6.54774 106.153 5.59028 106.073 4.48856C105.994 3.38685 105.037 2.55808 103.935 2.63746L104.222 6.62712ZM114.111 1.98044C113.008 2.04347 112.165 2.98854 112.228 4.09131C112.291 5.19408 113.236 6.03695 114.339 5.97393L114.111 1.98044ZM124.465 5.46922C125.569 5.42225 126.425 4.48955 126.379 3.38598C126.332 2.28241 125.399 1.42587 124.295 1.47284L124.465 5.46922ZM134.486 1.11295C133.382 1.14394 132.512 2.06415 132.543 3.16828C132.574 4.27242 133.494 5.14237 134.598 5.11137L134.486 1.11295ZM144.735 4.90051C145.839 4.8856 146.723 3.97815 146.708 2.87368C146.693 1.76921 145.785 0.88596 144.681 0.900878L144.735 4.90051ZM154.877 0.838352C153.772 0.83692 152.875 1.73119 152.874 2.83576C152.872 3.94033 153.767 4.83692 154.871 4.83835L154.877 0.838352ZM165.003 4.92804C166.107 4.94626 167.017 4.06572 167.035 2.9613C167.054 1.85688 166.173 0.946803 165.069 0.928587L165.003 4.92804ZM175.26 1.1765C174.156 1.14088 173.232 2.00696 173.197 3.11096C173.161 4.21495 174.027 5.1388 175.131 5.17442L175.26 1.1765ZM185.256 5.58408C186.359 5.63792 187.297 4.7872 187.351 3.68394C187.405 2.58068 186.554 1.64267 185.451 1.58883L185.256 5.58408ZM195.636 2.17407C194.534 2.101 193.581 2.93523 193.508 4.03738C193.435 5.13953 194.269 6.09224 195.371 6.16531L195.636 2.17407ZM205.472 6.92835C206.573 7.02191 207.541 6.20555 207.634 5.10495C207.728 4.00435 206.911 3.03629 205.811 2.94273L205.472 6.92835ZM215.971 3.90763C214.873 3.79206 213.888 4.58888 213.773 5.68739C213.657 6.7859 214.454 7.7701 215.553 7.88568L215.971 3.90763ZM225.606 9.05247C226.702 9.19192 227.703 8.41669 227.843 7.32096C227.982 6.22523 227.207 5.22392 226.111 5.08447L225.606 9.05247ZM236.224 6.49244C235.132 6.32686 234.113 7.07795 233.947 8.17003C233.782 9.26212 234.533 10.2817 235.625 10.4472L236.224 6.49244ZM245.599 12.0926C246.687 12.2871 247.726 11.5633 247.92 10.476C248.115 9.38869 247.391 8.34959 246.304 8.15511L245.599 12.0926ZM256.339 10.1016C255.258 9.87481 254.197 10.5673 253.971 11.6484C253.744 12.7294 254.436 13.7896 255.517 14.0164L256.339 10.1016ZM265.363 16.2529C266.436 16.5162 267.519 15.8601 267.782 14.7873C268.045 13.7146 267.389 12.6315 266.316 12.3682L265.363 16.2529ZM276.218 15.0003C275.156 14.6951 274.048 15.3083 273.743 16.3699C273.438 17.4315 274.051 18.5394 275.113 18.8446L276.218 15.0003ZM284.733 21.8444C285.779 22.198 286.914 21.6364 287.268 20.59C287.621 19.5436 287.06 18.4086 286.013 18.0549L284.733 21.8444ZM295.66 21.6042C294.634 21.1936 293.47 21.6919 293.06 22.7173C292.649 23.7427 293.147 24.9069 294.173 25.3175L295.66 21.6042ZM14.6739 21.3137C17.5892 20.349 20.7853 19.4065 24.2379 18.4921L23.2138 14.6254C19.6958 15.5571 16.421 16.5223 13.4172 17.5162L14.6739 21.3137ZM34.0902 16.1121C37.2363 15.4172 40.5324 14.7446 43.9648 14.0975L43.2236 10.1667C39.7539 10.821 36.4171 11.5017 33.2274 12.2063L34.0902 16.1121ZM53.9114 12.3554C57.1545 11.8281 60.4929 11.3227 63.9173 10.8412L63.3604 6.88019C59.9089 7.3655 56.5421 7.87512 53.2695 8.4072L53.9114 12.3554ZM73.9605 9.52799C77.2546 9.12848 80.6134 8.75076 84.0296 8.3963L83.6167 4.41766C80.1782 4.77444 76.7964 5.15474 73.4789 5.55708L73.9605 9.52799ZM94.1181 7.4325C97.4437 7.14156 100.814 6.87269 104.222 6.62712L103.935 2.63746C100.506 2.88449 97.1157 3.15498 93.7695 3.44771L94.1181 7.4325ZM114.339 5.97393C117.687 5.78259 121.064 5.61399 124.465 5.46922L124.295 1.47284C120.874 1.61844 117.478 1.78801 114.111 1.98044L114.339 5.97393ZM134.598 5.11137C137.961 5.01697 141.342 4.94634 144.735 4.90051L144.681 0.900878C141.268 0.946972 137.868 1.01801 134.486 1.11295L134.598 5.11137ZM154.871 4.83835C158.243 4.84271 161.622 4.87228 165.003 4.92804L165.069 0.928587C161.667 0.872486 158.268 0.842741 154.877 0.838352L154.871 4.83835ZM175.131 5.17442C178.511 5.28347 181.887 5.4197 185.256 5.58408L185.451 1.58883C182.06 1.42335 178.661 1.28625 175.26 1.1765L175.131 5.17442ZM195.371 6.16531C198.753 6.38957 202.122 6.64358 205.472 6.92835L205.811 2.94273C202.436 2.65579 199.042 2.39992 195.636 2.17407L195.371 6.16531ZM215.553 7.88568C218.931 8.24111 222.284 8.62968 225.606 9.05247L226.111 5.08447C222.759 4.65789 219.377 4.26598 215.971 3.90763L215.553 7.88568ZM235.625 10.4472C238.991 10.9576 242.318 11.5057 245.599 12.0926L246.304 8.15511C242.986 7.56165 239.624 7.00785 236.224 6.49244L235.625 10.4472ZM255.517 14.0164C258.859 14.7174 262.143 15.4624 265.363 16.2529L266.316 12.3682C263.05 11.5664 259.722 10.8114 256.339 10.1016L255.517 14.0164ZM275.113 18.8446C278.405 19.7909 281.614 20.7903 284.733 21.8444L286.013 18.0549C282.833 16.98 279.565 15.9624 276.218 15.0003L275.113 18.8446Z" fill="url(#paint0_linear_28_34)"/>
<defs>
<linearGradient id="paint0_linear_28_34" x1="-1" y1="15.3977" x2="10.5943" y2="78.4998" gradientUnits="userSpaceOnUse">
<stop stop-color="#FEE148"/>
<stop offset="1" stop-color="#9F34A3"/>
</linearGradient>
</defs>
</svg>
