<svg width="305" height="36" viewBox="0 0 305 36" fill="none" xmlns="http://www.w3.org/2000/svg">
<path d="M304.501 11.3977L281.431 10.3546L292.063 30.8558L304.501 11.3977ZM24.2216 17.274L9.45793 0.745909L0.542141 22.0495L22.6774 20.9639L24.2216 17.274ZM299.193 11.9002C298.189 12.3612 297.749 13.5486 298.21 14.5524C298.671 15.5562 299.859 15.9962 300.862 15.5352L299.193 11.9002ZM291.145 19.2867C292.194 18.9397 292.762 17.8083 292.415 16.7596C292.068 15.711 290.937 15.1422 289.888 15.4892L291.145 19.2867ZM280.324 18.3109C279.257 18.5937 278.62 19.6885 278.903 20.7563C279.186 21.824 280.281 22.4603 281.348 22.1776L280.324 18.3109ZM271.335 24.5966C272.413 24.3584 273.095 23.2909 272.856 22.2123C272.618 21.1337 271.551 20.4525 270.472 20.6908L271.335 24.5966ZM260.597 22.7055C259.512 22.9101 258.798 23.956 259.003 25.0414C259.207 26.1269 260.253 26.8409 261.339 26.6362L260.597 22.7055ZM251.293 28.3958C252.383 28.2185 253.123 27.191 252.946 26.1007C252.769 25.0105 251.741 24.2703 250.651 24.4476L251.293 28.3958ZM240.645 25.9617C239.551 26.1155 238.789 27.1269 238.943 28.2207C239.097 29.3145 240.108 30.0766 241.202 29.9228L240.645 25.9617ZM231.083 31.2459C232.18 31.1129 232.961 30.1162 232.828 29.0196C232.695 27.9231 231.698 27.142 230.602 27.275L231.083 31.2459ZM220.533 28.4066C219.434 28.5206 218.636 29.5037 218.75 30.6024C218.864 31.7011 219.847 32.4993 220.946 32.3853L220.533 28.4066ZM210.793 33.3552C211.893 33.259 212.707 32.2889 212.611 31.1885C212.515 30.0882 211.544 29.2742 210.444 29.3705L210.793 33.3552ZM200.34 30.1758C199.238 30.2552 198.409 31.2127 198.489 32.3144C198.568 33.4161 199.526 34.2449 200.627 34.1655L200.34 30.1758ZM190.452 34.8225C191.554 34.7595 192.397 33.8144 192.334 32.7116C192.271 31.6089 191.326 30.766 190.223 30.829L190.452 34.8225ZM180.097 31.3337C178.993 31.3807 178.137 32.3134 178.184 33.417C178.231 34.5205 179.163 35.3771 180.267 35.3301L180.097 31.3337ZM170.076 35.69C171.18 35.659 172.05 34.7388 172.019 33.6347C171.988 32.5305 171.068 31.6606 169.964 31.6916L170.076 35.69ZM159.827 31.9024C158.723 31.9174 157.84 32.8248 157.854 33.9293C157.869 35.0337 158.777 35.917 159.881 35.9021L159.827 31.9024ZM149.686 35.9646C150.79 35.966 151.687 35.0718 151.688 33.9672C151.69 32.8626 150.795 31.966 149.691 31.9646L149.686 35.9646ZM139.56 31.8749C138.455 31.8567 137.545 32.7372 137.527 33.8417C137.509 34.9461 138.389 35.8561 139.494 35.8744L139.56 31.8749ZM129.302 35.6264C130.406 35.6621 131.33 34.796 131.365 33.692C131.401 32.588 130.535 31.6642 129.431 31.6285L129.302 35.6264ZM119.307 31.2189C118.203 31.165 117.265 32.0158 117.211 33.119C117.158 34.2223 118.008 35.1603 119.112 35.2141L119.307 31.2189ZM108.927 34.6289C110.029 34.7019 110.981 33.8677 111.054 32.7656C111.128 31.6634 110.293 30.7107 109.191 30.6376L108.927 34.6289ZM99.0902 29.8746C97.9896 29.781 97.0215 30.5974 96.928 31.698C96.8344 32.7986 97.6508 33.7667 98.7514 33.8602L99.0902 29.8746ZM88.5911 32.8953C89.6896 33.0109 90.6738 32.2141 90.7894 31.1156C90.905 30.0171 90.1081 29.0328 89.0096 28.9173L88.5911 32.8953ZM78.9562 27.7505C77.8604 27.611 76.8591 28.3863 76.7197 29.482C76.5802 30.5777 77.3555 31.579 78.4512 31.7185L78.9562 27.7505ZM68.3379 30.3105C69.4299 30.4761 70.4495 29.725 70.6151 28.6329C70.7806 27.5408 70.0295 26.5213 68.9375 26.3557L68.3379 30.3105ZM58.963 24.7103C57.8757 24.5158 56.8366 25.2396 56.6421 26.3269C56.4476 27.4143 57.1714 28.4534 58.2587 28.6478L58.963 24.7103ZM48.2236 26.7013C49.3046 26.9281 50.3648 26.2356 50.5916 25.1546C50.8184 24.0736 50.1259 23.0134 49.0449 22.7866L48.2236 26.7013ZM39.1993 20.5501C38.1266 20.2868 37.0436 20.9429 36.7802 22.0156C36.5169 23.0883 37.173 24.1714 38.2458 24.4347L39.1993 20.5501ZM28.3445 21.8027C29.4061 22.1078 30.5141 21.4946 30.8193 20.4331C31.1244 19.3715 30.5112 18.2635 29.4496 17.9584L28.3445 21.8027ZM19.8295 14.9586C18.7831 14.6049 17.6481 15.1665 17.2945 16.2129C16.9408 17.2593 17.5024 18.3943 18.5488 18.748L19.8295 14.9586ZM8.90253 15.1988C9.92791 15.6094 11.0921 15.111 11.5027 14.0856C11.9133 13.0602 11.415 11.8961 10.3896 11.4854L8.90253 15.1988ZM289.888 15.4892C286.973 16.454 283.777 17.3964 280.324 18.3109L281.348 22.1776C284.866 21.2458 288.141 20.2807 291.145 19.2867L289.888 15.4892ZM270.472 20.6908C267.326 21.3858 264.03 22.0583 260.597 22.7055L261.339 26.6362C264.808 25.982 268.145 25.3013 271.335 24.5966L270.472 20.6908ZM250.651 24.4476C247.408 24.9749 244.069 25.4802 240.645 25.9617L241.202 29.9228C244.653 29.4374 248.02 28.9278 251.293 28.3958L250.651 24.4476ZM230.602 27.275C227.308 27.6745 223.949 28.0522 220.533 28.4066L220.946 32.3853C224.384 32.0285 227.766 31.6482 231.083 31.2459L230.602 27.275ZM210.444 29.3705C207.119 29.6614 203.748 29.9303 200.34 30.1758L200.627 34.1655C204.056 33.9185 207.447 33.648 210.793 33.3552L210.444 29.3705ZM190.223 30.829C186.876 31.0204 183.498 31.189 180.097 31.3337L180.267 35.3301C183.688 35.1845 187.085 35.0149 190.452 34.8225L190.223 30.829ZM169.964 31.6916C166.601 31.786 163.22 31.8566 159.827 31.9024L159.881 35.9021C163.294 35.856 166.694 35.7849 170.076 35.69L169.964 31.6916ZM149.691 31.9646C146.319 31.9602 142.94 31.9307 139.56 31.8749L139.494 35.8744C142.895 35.9305 146.294 35.9602 149.686 35.9646L149.691 31.9646ZM129.431 31.6285C126.051 31.5195 122.675 31.3833 119.307 31.2189L119.112 35.2141C122.502 35.3796 125.901 35.5167 129.302 35.6264L129.431 31.6285ZM109.191 30.6376C105.809 30.4134 102.44 30.1594 99.0902 29.8746L98.7514 33.8602C102.127 34.1472 105.52 34.403 108.927 34.6289L109.191 30.6376ZM89.0096 28.9173C85.6313 28.5618 82.2784 28.1733 78.9562 27.7505L78.4512 31.7185C81.8032 32.1451 85.1851 32.537 88.5911 32.8953L89.0096 28.9173ZM68.9375 26.3557C65.5714 25.8454 62.2445 25.2973 58.963 24.7103L58.2587 28.6478C61.5766 29.2413 64.9384 29.7951 68.3379 30.3105L68.9375 26.3557ZM49.0449 22.7866C45.7035 22.0856 42.4193 21.3405 39.1993 20.5501L38.2458 24.4347C41.512 25.2365 44.8403 25.9916 48.2236 26.7013L49.0449 22.7866ZM29.4496 17.9584C26.1577 17.0121 22.9482 16.0126 19.8295 14.9586L18.5488 18.748C21.7293 19.823 24.9976 20.8406 28.3445 21.8027L29.4496 17.9584Z" fill="url(#paint0_linear_23_47)"/>
<defs>
<linearGradient id="paint0_linear_23_47" x1="305.562" y1="21.4053" x2="293.968" y2="-41.6969" gradientUnits="userSpaceOnUse">
<stop stop-color="#FEE148"/>
<stop offset="1" stop-color="#9F34A3"/>
</linearGradient>
</defs>
</svg>
