<svg width="134" height="16" viewBox="0 0 134 16" fill="none" xmlns="http://www.w3.org/2000/svg">
<path d="M133.833 6C133.833 8.94552 131.446 11.3333 128.5 11.3333C125.554 11.3333 123.167 8.94552 123.167 6C123.167 3.05448 125.554 0.666667 128.5 0.666667C131.446 0.666667 133.833 3.05448 133.833 6ZM11.3333 6C11.3333 8.94552 8.94552 11.3333 6 11.3333C3.05448 11.3333 0.666664 8.94552 0.666664 6C0.666664 3.05448 3.05448 0.666667 6 0.666667C8.94552 0.666667 11.3333 3.05448 11.3333 6ZM128.752 6.96776C128.147 7.12515 127.522 7.28403 126.876 7.444L126.395 5.50274C127.033 5.34457 127.651 5.18761 128.248 5.03224L128.752 6.96776ZM123.084 8.34303C121.868 8.61895 120.599 8.89594 119.28 9.17206L118.871 7.21453C120.178 6.94063 121.436 6.66602 122.641 6.39264L123.084 8.34303ZM115.454 9.94309C114.211 10.184 112.932 10.4229 111.62 10.6583L111.267 8.68971C112.57 8.45593 113.839 8.21878 115.073 7.97963L115.454 9.94309ZM107.791 11.3192C106.535 11.5275 105.254 11.7318 103.95 11.9311L103.648 9.9541C104.944 9.75603 106.216 9.55305 107.463 9.34618L107.791 11.3192ZM100.1 12.4948C98.8327 12.6723 97.5463 12.8445 96.2425 13.0106L95.9898 11.0267C97.2852 10.8616 98.5634 10.6905 99.8226 10.5142L100.1 12.4948ZM92.3785 13.4785C91.1023 13.625 89.8118 13.7651 88.5085 13.8982L88.3054 11.9085C89.6003 11.7763 90.8825 11.6371 92.1504 11.4916L92.3785 13.4785ZM84.6331 14.2688C83.3498 14.3833 82.0559 14.4904 80.7528 14.5896L80.601 12.5954C81.8954 12.4969 83.1806 12.3905 84.4554 12.2767L84.6331 14.2688ZM76.8682 14.8591C75.5793 14.9399 74.2828 15.0124 72.9799 15.076L72.8824 13.0783C74.1759 13.0152 75.4632 12.9432 76.7431 12.8631L76.8682 14.8591ZM69.0915 15.2381C67.7989 15.2827 66.5014 15.3182 65.2001 15.3438L65.1607 13.3442C66.4519 13.3188 67.7396 13.2836 69.0225 13.2393L69.0915 15.2381ZM61.3061 15.3905C60.0098 15.396 58.7109 15.3912 57.4106 15.3757L57.4346 13.3758C58.7238 13.3912 60.0119 13.396 61.2977 13.3905L61.3061 15.3905ZM53.5148 15.2962C52.2165 15.2585 50.9178 15.2096 49.6201 15.1487L49.7138 13.1509C50.9993 13.2112 52.286 13.2597 53.5728 13.297L53.5148 15.2962ZM45.728 14.9295C44.4296 14.8439 43.1333 14.7458 41.8402 14.6345L42.0117 12.6419C43.2911 12.752 44.5741 12.8491 45.8595 12.9338L45.728 14.9295ZM37.9587 14.2591C36.6628 14.1196 35.3712 13.9662 34.0853 13.7982L34.3444 11.815C35.6149 11.981 36.8913 12.1327 38.1726 12.2706L37.9587 14.2591ZM30.2202 13.2457C28.9289 13.0449 27.6446 12.8284 26.3684 12.5957L26.7273 10.6281C27.9857 10.8577 29.2529 11.0712 30.5275 11.2695L30.2202 13.2457ZM22.5339 11.8411C21.2527 11.57 19.9814 11.2813 18.721 10.9744L19.1942 9.03122C20.4342 9.33319 21.6859 9.61738 22.9479 9.88442L22.5339 11.8411ZM14.9353 9.98732C13.6712 9.63516 12.4201 9.26319 11.1832 8.87067L11.7881 6.96436C13.0016 7.34946 14.23 7.71467 15.4721 8.06069L14.9353 9.98732ZM7.47238 7.61467C6.85801 7.39321 6.2477 7.16621 5.64165 6.93359L6.35835 5.06641C6.95139 5.29405 7.54887 5.51627 8.15061 5.73318L7.47238 7.61467Z" fill="#9F34A3"/>
</svg>
